<?xml version="1.0" encoding="iso-8859-1"?>
<!-- Generator: Adobe Illustrator 16.0.0, SVG Export Plug-In . SVG Version: 6.00 Build 0)  -->
<!DOCTYPE svg PUBLIC "-//W3C//DTD SVG 1.1//EN" "http://www.w3.org/Graphics/SVG/1.1/DTD/svg11.dtd">
<svg version="1.1" id="Capa_1" xmlns="http://www.w3.org/2000/svg" xmlns:xlink="http://www.w3.org/1999/xlink" x="0px" y="0px"
	 width="191.819px" height="191.819px" viewBox="0 0 191.819 191.819" style="enable-background:new 0 0 191.819 191.819;"
	 xml:space="preserve">
<g>
	<g>
		<path d="M100.132,162.738c-0.007-8.527,0.03-17.061-0.397-25.576c-0.054-1.07-0.717-2.167-1.835-2.41
			c-0.799-0.169-1.594-0.346-2.389-0.531c-1.965-0.788-3.293,1.319-2.939,2.991c-0.008,0.024-0.026,0.04-0.033,0.065
			c-1.964,6.93-1.582,14.225-1.625,21.363c-0.01,1.689-0.045,3.383-0.065,5.077c-6.279,1.484-10.896,7.344-10.328,14.237
			c0.624,7.575,7.357,14.144,14.98,13.855c6.823-0.258,12.607-5.701,14.491-12.015C112.177,172.465,107.423,164.504,100.132,162.738
			z"/>
		<path d="M155.98,88.845c-7.952-3.009-14.352-5.683-20.453-12.042c-6.743-7.028-11.023-16.231-16.604-24.138
			c-9.005-12.757-20.028-24.496-35.045-29.811c-6.623-2.344-13.963-2.571-21.083-1.233c-1.029,0.089-1.996,0.301-2.895,0.639
			c-2.163,0.539-4.297,1.211-6.368,2.016c-0.017-0.093-0.035-0.188-0.054-0.283c-0.546-2.963-1.657-5.85-3.002-8.602
			c-0.402-0.84-0.833-1.679-1.297-2.503c-0.436-0.799-0.879-1.589-1.328-2.357c-2.324-3.974-6.28-10.275-11.509-10.523
			c-6.073-0.289-8.26,7.648-7.815,12.413c0.727,7.775,7.477,13.32,11.948,19.252c-23.898,18.825-19.159,49.916-3.408,72.375
			c5.237,7.467,10.021,15.01,12.153,23.979c1.893,7.966,0.335,16.288-0.311,24.311c-0.6,7.463,1.024,17.802,8.891,18.196
			c5.595,2.567,13.945,2.34,20.179-0.947c1.534-0.81,0.907-3.586-0.919-3.392c-5.2,0.555-11.18,1.105-16.278-0.195
			c-9.55-2.438,6.501-17.562,9.328-20.141c12.455-11.365,27.369-20.754,41.444-29.989c9.076-5.956,18.683-10.957,29.184-13.837
			c6.263-1.719,23.874-4.26,18.477,7.206c-4.187,8.894-13.495,16.729-20.665,23.225c-8.513,7.714-18.01,14.269-27.993,19.918
			c-3.354,1.898-0.345,7.058,3.019,5.162c13.113-7.395,25.013-16.448,35.756-26.987c5.296-5.196,15.935-14.649,17.224-23.576
			C170.692,97.742,164.932,92.232,155.98,88.845z M46.935,25.347c-4.291-0.695-7.93-4.286-10.331-7.706
			c-1.329-1.892-2.413-4.299-2.039-6.658c0.314-1.973,1.864-3.05,3.576-2.148c5.033,2.652,9.105,11.518,10.063,17.093
			C47.89,25.649,47.48,25.436,46.935,25.347z M115.218,57.697c1.076,1.536,2.095,3.086,3.111,4.632
			c-0.004,0.025-0.018,0.045-0.021,0.071c-0.013,0.141,0.004,0.28,0.002,0.42c-1.567-2.595-3.134-5.091-4.753-7.467
			C114.121,56.14,114.675,56.923,115.218,57.697z M80.846,33.156c0.059,0.034,0.115,0.061,0.174,0.094
			c5.047,2.853,9.912,6.253,14.431,10.028c6.398,7.711,12.548,15.625,18.903,23.36c2.769,4.818,5.561,9.631,9.175,13.8
			c0.472,0.544,0.959,1.062,1.455,1.565c-1.657,0.785-3.244,1.681-4.848,2.767c-5.768,3.904-10.934-3.299-14.699-7.119
			c-5.819-5.905-11.18-12.583-15.712-19.533c-2.899-4.447-5.572-9.042-7.966-13.78c-1.316-2.604-2.414-5.292-3.142-8.118
			C77.954,33.648,79.132,33.214,80.846,33.156z"/>
	</g>
</g>
<g>
</g>
<g>
</g>
<g>
</g>
<g>
</g>
<g>
</g>
<g>
</g>
<g>
</g>
<g>
</g>
<g>
</g>
<g>
</g>
<g>
</g>
<g>
</g>
<g>
</g>
<g>
</g>
<g>
</g>
</svg>
